<?xml version="1.0" standalone="no"?>
<!DOCTYPE svg PUBLIC "-//W3C//DTD SVG 20010904//EN"
 "http://www.w3.org/TR/2001/REC-SVG-20010904/DTD/svg10.dtd">
<svg version="1.0" xmlns="http://www.w3.org/2000/svg"
 width="1046.000000pt" height="1046.000000pt" viewBox="0 0 1046.000000 1046.000000"
 preserveAspectRatio="xMidYMid meet">

<g transform="translate(0.000000,1046.000000) scale(0.100000,-0.100000)"
fill="#000000" stroke="none">
<path d="M5154 9555 c8 -187 -30 -480 -91 -690 -82 -288 -215 -518 -409 -708
-66 -64 -198 -167 -214 -167 -4 0 -11 26 -15 58 -8 71 -43 154 -54 132 -5 -8
-13 -48 -20 -87 -6 -40 -31 -133 -56 -205 -80 -240 -110 -467 -94 -708 20
-290 84 -474 223 -642 61 -74 162 -155 366 -295 255 -175 352 -298 411 -518
25 -94 28 -274 9 -570 -31 -490 -85 -788 -181 -992 -51 -107 -96 -125 -238
-99 -157 28 -250 17 -379 -46 -46 -22 -81 -42 -79 -45 3 -2 73 5 157 17 181
24 222 25 259 6 59 -31 57 -39 -27 -92 -136 -86 -258 -225 -322 -368 -31 -69
-64 -176 -56 -183 3 -3 25 35 49 84 87 172 215 317 339 383 72 39 186 64 252
55 64 -8 89 9 112 77 9 29 25 70 34 91 l17 37 169 -155 c93 -86 170 -165 172
-176 2 -11 -12 -64 -31 -117 -82 -225 -128 -475 -142 -768 -8 -162 11 -316 45
-362 36 -48 40 -29 11 45 -23 62 -26 80 -25 203 2 212 78 602 170 877 30 89
54 164 54 166 0 2 -61 82 -135 178 -226 290 -239 338 -171 634 14 61 32 160
41 220 20 135 35 491 28 638 -4 68 -2 107 4 107 5 0 32 -7 59 -15 76 -23 82
-19 37 28 -73 75 -122 156 -150 247 -58 194 -111 265 -326 443 -304 250 -336
278 -388 335 -103 115 -180 249 -219 382 -16 56 -23 112 -27 226 -6 173 7 258
57 359 35 74 59 103 231 291 187 205 251 282 332 404 165 250 268 519 311 811
29 192 22 248 -49 424 -56 139 -55 139 -51 50z"/>
<path d="M5900 5544 c-44 -8 -285 -76 -292 -83 -4 -3 -3 -26 3 -49 5 -24 20
-107 34 -184 18 -106 32 -158 59 -215 63 -131 179 -225 318 -254 95 -21 349
-6 526 31 110 22 174 31 223 28 50 -2 69 0 69 10 0 17 -53 166 -83 234 -95
212 -277 383 -485 455 -66 23 -96 27 -212 29 -74 1 -146 0 -160 -2z"/>
<path d="M3922 3935 c-120 -34 -227 -92 -294 -162 -20 -21 -69 -96 -108 -168
-80 -144 -105 -181 -161 -240 l-38 -40 62 5 c34 3 91 2 127 -2 111 -12 193 -9
262 10 160 45 279 173 328 353 27 103 50 156 84 196 l27 32 -23 12 c-35 19
-203 22 -266 4z"/>
<path d="M4221 3071 c-18 -12 -58 -17 -155 -22 -103 -4 -141 -10 -178 -26 -95
-43 -182 -148 -220 -266 -17 -52 -20 -83 -17 -187 8 -331 3 -373 -61 -474 -17
-26 -30 -51 -30 -57 0 -6 23 -8 63 -4 120 13 201 35 296 81 171 83 287 226
338 414 22 81 23 398 1 496 l-13 62 -24 -17z"/>
<path d="M5425 2418 c-2 -7 -13 -49 -25 -93 -12 -44 -35 -118 -51 -165 -78
-219 -78 -389 -2 -534 15 -28 66 -90 114 -137 70 -71 102 -94 170 -127 100
-48 166 -63 438 -103 113 -16 231 -36 261 -45 104 -30 190 -84 243 -153 39
-51 60 -54 53 -8 -3 17 -13 97 -21 177 -22 199 -41 318 -70 429 -113 425 -407
683 -864 757 -110 18 -240 19 -246 2z"/>
</g>
</svg>
