<?xml version="1.0" standalone="no"?>
<!DOCTYPE svg PUBLIC "-//W3C//DTD SVG 20010904//EN"
 "http://www.w3.org/TR/2001/REC-SVG-20010904/DTD/svg10.dtd">
<svg version="1.0" xmlns="http://www.w3.org/2000/svg"
 width="1793.000000pt" height="1793.000000pt" viewBox="0 0 1793.000000 1793.000000"
 preserveAspectRatio="xMidYMid meet">

<g transform="translate(0.000000,1793.000000) scale(0.100000,-0.100000)"
fill="#000000" stroke="none">
<path d="M8744 16087 c3 -12 8 -83 12 -157 13 -278 -39 -692 -136 -1067 -168
-649 -523 -1184 -1004 -1512 -50 -34 -93 -61 -96 -61 -4 0 -10 39 -13 88 -7
101 -38 210 -71 249 l-24 27 -6 -29 c-3 -17 -15 -84 -26 -150 -22 -135 -38
-193 -104 -380 -149 -427 -196 -881 -140 -1363 51 -444 189 -750 458 -1017
123 -122 233 -206 566 -435 204 -139 282 -202 372 -299 213 -231 328 -513 344
-844 14 -276 -48 -1190 -107 -1587 -40 -267 -110 -540 -187 -732 -107 -265
-171 -303 -439 -257 -256 44 -440 27 -623 -57 -87 -40 -177 -97 -163 -101 5
-2 111 10 234 26 342 46 394 48 456 22 28 -13 63 -35 77 -50 l27 -28 -98 -61
c-297 -183 -497 -420 -622 -735 -30 -76 -83 -258 -77 -264 2 -2 36 58 76 134
194 373 394 595 640 712 129 61 183 73 358 76 186 2 184 1 235 148 20 56 46
126 59 154 l23 53 250 -230 c307 -283 345 -322 345 -352 0 -13 -20 -75 -45
-137 -131 -332 -204 -676 -251 -1176 -22 -241 -21 -426 5 -602 21 -148 30
-175 78 -232 48 -57 54 -31 16 71 -47 123 -63 204 -63 318 0 196 27 403 106
808 75 390 156 684 253 927 22 53 31 89 27 108 -3 15 -70 110 -149 210 -191
243 -318 412 -350 467 -14 25 -38 81 -53 125 -26 72 -28 93 -28 215 0 124 4
148 42 300 104 417 142 792 142 1429 0 252 3 312 13 308 7 -3 46 -14 87 -26
41 -11 90 -25 108 -30 32 -10 31 -7 -35 62 -37 40 -104 126 -149 193 -69 104
-84 135 -108 220 -15 54 -44 140 -63 189 -100 255 -176 334 -813 850 -101 83
-230 195 -285 250 -350 348 -505 718 -505 1207 0 210 43 399 125 554 57 109
106 173 233 307 531 558 781 893 973 1303 180 386 302 877 303 1224 1 153 -12
214 -71 345 -19 44 -54 133 -77 197 -25 72 -46 118 -55 118 -9 0 -11 -7 -7
-23z"/>
<path d="M10110 9109 c-95 -12 -233 -45 -419 -100 -90 -27 -165 -49 -166 -49
-1 0 6 -42 17 -92 10 -51 34 -183 53 -293 37 -221 74 -342 136 -448 114 -193
267 -308 490 -369 75 -20 106 -23 284 -23 243 1 418 21 675 78 167 37 199 41
328 41 135 1 142 2 142 21 0 25 -74 238 -124 360 -149 357 -441 658 -767 789
-205 83 -432 113 -649 85z"/>
<path d="M6716 6355 c-262 -50 -509 -189 -629 -353 -19 -26 -76 -123 -127
-217 -121 -222 -188 -323 -280 -419 -73 -77 -74 -79 -42 -73 90 18 223 18 357
2 216 -26 369 -5 530 74 219 108 348 284 436 591 44 156 89 255 145 315 19 21
33 40 31 42 -2 2 -31 13 -63 25 -77 27 -246 34 -358 13z"/>
<path d="M7146 4856 l-49 -31 -161 -1 c-187 -1 -238 -7 -323 -39 -189 -71
-350 -262 -413 -487 -37 -133 -43 -234 -24 -423 34 -351 1 -544 -123 -718 -50
-71 -44 -83 42 -79 187 8 375 56 541 137 331 161 525 419 599 796 23 116 31
395 16 544 -12 111 -46 324 -53 330 -2 1 -25 -12 -52 -29z"/>
<path d="M9196 3644 c-15 -65 -59 -213 -97 -329 -37 -115 -75 -240 -84 -277
-39 -169 -37 -351 6 -493 73 -243 281 -480 538 -614 163 -85 295 -116 786
-186 351 -50 468 -77 587 -133 130 -61 215 -133 297 -249 13 -19 31 -33 43
-33 18 0 20 4 14 43 -3 23 -20 164 -36 312 -36 312 -52 429 -81 574 -156 779
-591 1251 -1324 1435 -160 40 -279 57 -455 63 l-165 6 -29 -119z"/>
</g>
</svg>
